<svg id="visual" viewBox="0 0 900 600" width="900" height="600" xmlns="http://www.w3.org/2000/svg" xmlns:xlink="http://www.w3.org/1999/xlink" version="1.1"><rect x="0" y="0" width="900" height="600" fill="#224E80"></rect><defs><linearGradient id="grad1_0" x1="33.3%" y1="0%" x2="100%" y2="100%"><stop offset="20%" stop-color="#224e80" stop-opacity="1"></stop><stop offset="80%" stop-color="#224e80" stop-opacity="1"></stop></linearGradient></defs><defs><linearGradient id="grad2_0" x1="0%" y1="0%" x2="66.7%" y2="100%"><stop offset="20%" stop-color="#224e80" stop-opacity="1"></stop><stop offset="80%" stop-color="#224e80" stop-opacity="1"></stop></linearGradient></defs><g transform="translate(900, 0)"><path d="M0 459.7C-34.5 435.5 -69 411.3 -107.7 401.8C-146.4 392.4 -189.3 397.6 -218 377.6C-246.7 357.6 -261.2 312.2 -279.3 279.3C-297.4 246.4 -319 225.8 -350.7 202.5C-382.4 179.2 -424.2 153.2 -444 119C-463.9 84.8 -461.8 42.4 -459.7 0L0 0Z" fill="#46ceac"></path></g><g transform="translate(0, 600)"><path d="M0 -459.7C30.3 -422.5 60.6 -385.3 102.5 -382.5C144.4 -379.7 197.9 -411.4 229.9 -398.1C261.8 -384.8 272.1 -326.5 286.4 -286.4C300.7 -246.2 319 -224.3 346.4 -200C373.8 -175.7 410.4 -149.2 430.8 -115.4C451.2 -81.7 455.5 -40.9 459.7 0L0 0Z" fill="#46ceac"></path></g></svg>