<svg id="visual" viewBox="0 0 900 600" width="900" height="600" xmlns="http://www.w3.org/2000/svg" xmlns:xlink="http://www.w3.org/1999/xlink" version="1.1"><rect x="0" y="0" width="900" height="600" fill="#224E80"></rect><defs><linearGradient id="grad1_0" x1="33.3%" y1="0%" x2="100%" y2="100%"><stop offset="20%" stop-color="#224e80" stop-opacity="1"></stop><stop offset="80%" stop-color="#224e80" stop-opacity="1"></stop></linearGradient></defs><defs><linearGradient id="grad2_0" x1="0%" y1="0%" x2="66.7%" y2="100%"><stop offset="20%" stop-color="#224e80" stop-opacity="1"></stop><stop offset="80%" stop-color="#224e80" stop-opacity="1"></stop></linearGradient></defs><g transform="translate(900, 0)"><path d="M0 432.7C-47.6 431.4 -95.2 430.2 -133.7 411.5C-172.2 392.8 -201.6 356.7 -239.2 329.3C-276.9 301.8 -322.7 283.1 -341.4 248C-360.1 213 -351.7 161.8 -362.4 117.7C-373 73.7 -402.9 36.8 -432.7 0L0 0Z" fill="#805422"></path></g><g transform="translate(0, 600)"><path d="M0 -432.7C42.1 -423.8 84.3 -414.9 132 -406.1C179.6 -397.3 232.9 -388.6 254.3 -350C275.7 -311.5 265.3 -243.1 276.7 -201C288.1 -158.9 321.3 -143.1 350.9 -114C380.6 -84.9 406.6 -42.5 432.7 0L0 0Z" fill="#805422"></path></g></svg>