<svg id="visual" viewBox="0 0 900 600" width="900" height="600" xmlns="http://www.w3.org/2000/svg" xmlns:xlink="http://www.w3.org/1999/xlink" version="1.1"><path d="M0 159L21.5 159.3C43 159.7 86 160.3 128.8 165C171.7 169.7 214.3 178.3 257.2 183.3C300 188.3 343 189.7 385.8 188.7C428.7 187.7 471.3 184.3 514.2 190.3C557 196.3 600 211.7 642.8 221.5C685.7 231.3 728.3 235.7 771.2 231.7C814 227.7 857 215.3 878.5 209.2L900 203L900 0L878.5 0C857 0 814 0 771.2 0C728.3 0 685.7 0 642.8 0C600 0 557 0 514.2 0C471.3 0 428.7 0 385.8 0C343 0 300 0 257.2 0C214.3 0 171.7 0 128.8 0C86 0 43 0 21.5 0L0 0Z" fill="#afffb3"></path><path d="M0 141L21.5 142C43 143 86 145 128.8 148.3C171.7 151.7 214.3 156.3 257.2 154C300 151.7 343 142.3 385.8 147C428.7 151.7 471.3 170.3 514.2 175.8C557 181.3 600 173.7 642.8 175C685.7 176.3 728.3 186.7 771.2 179.2C814 171.7 857 146.3 878.5 133.7L900 121L900 0L878.5 0C857 0 814 0 771.2 0C728.3 0 685.7 0 642.8 0C600 0 557 0 514.2 0C471.3 0 428.7 0 385.8 0C343 0 300 0 257.2 0C214.3 0 171.7 0 128.8 0C86 0 43 0 21.5 0L0 0Z" fill="#52d7be"></path><path d="M0 116L21.5 117.8C43 119.7 86 123.3 128.8 128.8C171.7 134.3 214.3 141.7 257.2 141.2C300 140.7 343 132.3 385.8 133.7C428.7 135 471.3 146 514.2 146.2C557 146.3 600 135.7 642.8 134.5C685.7 133.3 728.3 141.7 771.2 135.7C814 129.7 857 109.3 878.5 99.2L900 89L900 0L878.5 0C857 0 814 0 771.2 0C728.3 0 685.7 0 642.8 0C600 0 557 0 514.2 0C471.3 0 428.7 0 385.8 0C343 0 300 0 257.2 0C214.3 0 171.7 0 128.8 0C86 0 43 0 21.5 0L0 0Z" fill="#00aabb"></path><path d="M0 88L21.5 87C43 86 86 84 128.8 81.8C171.7 79.7 214.3 77.3 257.2 73.8C300 70.3 343 65.7 385.8 72.8C428.7 80 471.3 99 514.2 106.2C557 113.3 600 108.7 642.8 107.8C685.7 107 728.3 110 771.2 109.7C814 109.3 857 105.7 878.5 103.8L900 102L900 0L878.5 0C857 0 814 0 771.2 0C728.3 0 685.7 0 642.8 0C600 0 557 0 514.2 0C471.3 0 428.7 0 385.8 0C343 0 300 0 257.2 0C214.3 0 171.7 0 128.8 0C86 0 43 0 21.5 0L0 0Z" fill="#007ca5"></path><path d="M0 33L21.5 39.7C43 46.3 86 59.7 128.8 62.7C171.7 65.7 214.3 58.3 257.2 54.8C300 51.3 343 51.7 385.8 47.5C428.7 43.3 471.3 34.7 514.2 35C557 35.3 600 44.7 642.8 48.2C685.7 51.7 728.3 49.3 771.2 47C814 44.7 857 42.3 878.5 41.2L900 40L900 0L878.5 0C857 0 814 0 771.2 0C728.3 0 685.7 0 642.8 0C600 0 557 0 514.2 0C471.3 0 428.7 0 385.8 0C343 0 300 0 257.2 0C214.3 0 171.7 0 128.8 0C86 0 43 0 21.5 0L0 0Z" fill="#224e80"></path></svg>